<mxfile host="65bd71144e">
    <diagram id="tLxtK4agy6qAX0qGrLQX" name="Page-1">
        <mxGraphModel dx="2176" dy="2979" grid="1" gridSize="10" guides="1" tooltips="1" connect="1" arrows="1" fold="1" page="1" pageScale="1" pageWidth="850" pageHeight="1100" math="0" shadow="0">
            <root>
                <mxCell id="0"/>
                <mxCell id="1" parent="0"/>
                <mxCell id="10" style="edgeStyle=none;html=1;entryX=0.5;entryY=0;entryDx=0;entryDy=0;" parent="1" source="11" target="13" edge="1">
                    <mxGeometry relative="1" as="geometry"/>
                </mxCell>
                <mxCell id="11" value="Start (handle_list_books&lt;span style=&quot;background-color: transparent;&quot;&gt;)&lt;/span&gt;" style="ellipse;whiteSpace=wrap;html=1;" parent="1" vertex="1">
                    <mxGeometry x="-724.0699999999999" y="-2079" width="170.21" height="51" as="geometry"/>
                </mxCell>
                <mxCell id="12" style="edgeStyle=none;html=1;" parent="1" source="13" target="15" edge="1">
                    <mxGeometry relative="1" as="geometry"/>
                </mxCell>
                <mxCell id="13" value="book_model.all_books" style="shape=process;whiteSpace=wrap;html=1;backgroundOutline=1;" parent="1" vertex="1">
                    <mxGeometry x="-750" y="-1998" width="222.07" height="38" as="geometry"/>
                </mxCell>
                <mxCell id="14" style="edgeStyle=none;html=1;entryX=0.5;entryY=0;entryDx=0;entryDy=0;" parent="1" source="15" target="17" edge="1">
                    <mxGeometry relative="1" as="geometry"/>
                </mxCell>
                <mxCell id="15" value="Format data" style="rounded=0;whiteSpace=wrap;html=1;" parent="1" vertex="1">
                    <mxGeometry x="-698.9699999999999" y="-1928" width="120" height="40" as="geometry"/>
                </mxCell>
                <mxCell id="16" style="edgeStyle=none;html=1;entryX=0.5;entryY=0;entryDx=0;entryDy=0;" parent="1" source="17" target="18" edge="1">
                    <mxGeometry relative="1" as="geometry"/>
                </mxCell>
                <mxCell id="17" value="Print formatted&amp;nbsp;&lt;div&gt;data&lt;/div&gt;" style="shape=parallelogram;perimeter=parallelogramPerimeter;whiteSpace=wrap;html=1;fixedSize=1;" parent="1" vertex="1">
                    <mxGeometry x="-698.9699999999999" y="-1858" width="120" height="60" as="geometry"/>
                </mxCell>
                <mxCell id="18" value="End (&lt;span style=&quot;color: rgb(0, 0, 0);&quot;&gt;handle_list_books&lt;/span&gt;)" style="ellipse;whiteSpace=wrap;html=1;" parent="1" vertex="1">
                    <mxGeometry x="-709.9899999999999" y="-1774" width="142.06" height="56" as="geometry"/>
                </mxCell>
                <mxCell id="19" value="" style="edgeStyle=none;html=1;" parent="1" source="20" target="24" edge="1">
                    <mxGeometry relative="1" as="geometry"/>
                </mxCell>
                <mxCell id="20" value="Start (book_model.all_books)" style="ellipse;whiteSpace=wrap;html=1;" parent="1" vertex="1">
                    <mxGeometry x="-435.88" y="-2080" width="197.95" height="62" as="geometry"/>
                </mxCell>
                <mxCell id="21" value="End - Return data (book_model.load_books)" style="ellipse;whiteSpace=wrap;html=1;" parent="1" vertex="1">
                    <mxGeometry x="-435.88" y="-1664" width="197.95" height="66" as="geometry"/>
                </mxCell>
                <mxCell id="22" value="" style="edgeStyle=none;html=1;" parent="1" source="24" target="26" edge="1">
                    <mxGeometry relative="1" as="geometry"/>
                </mxCell>
                <mxCell id="23" style="edgeStyle=none;html=1;entryX=0.5;entryY=0;entryDx=0;entryDy=0;" parent="1" source="24" target="30" edge="1">
                    <mxGeometry relative="1" as="geometry">
                        <Array as="points">
                            <mxPoint x="-177.93" y="-1936"/>
                        </Array>
                    </mxGeometry>
                </mxCell>
                <mxCell id="24" value="if BOOKS_FILE&amp;nbsp;&lt;div&gt;exists&lt;/div&gt;" style="rhombus;whiteSpace=wrap;html=1;" parent="1" vertex="1">
                    <mxGeometry x="-397.41" y="-1998" width="122.02" height="122.02" as="geometry"/>
                </mxCell>
                <mxCell id="25" style="edgeStyle=none;html=1;entryX=0.5;entryY=0;entryDx=0;entryDy=0;" parent="1" source="26" target="28" edge="1">
                    <mxGeometry relative="1" as="geometry"/>
                </mxCell>
                <mxCell id="26" value="with open(BOOKS&lt;span style=&quot;color: rgb(0, 0, 0);&quot;&gt;_FILE&lt;/span&gt;, &quot;r&quot;)" style="whiteSpace=wrap;html=1;" parent="1" vertex="1">
                    <mxGeometry x="-407.93" y="-1857" width="141.04" height="60" as="geometry"/>
                </mxCell>
                <mxCell id="27" style="edgeStyle=none;html=1;entryX=0.5;entryY=0;entryDx=0;entryDy=0;" parent="1" source="28" target="21" edge="1">
                    <mxGeometry relative="1" as="geometry"/>
                </mxCell>
                <mxCell id="28" value="format data" style="whiteSpace=wrap;html=1;" parent="1" vertex="1">
                    <mxGeometry x="-407.93" y="-1775" width="141.04" height="60" as="geometry"/>
                </mxCell>
                <mxCell id="29" style="edgeStyle=none;html=1;entryX=0.5;entryY=0;entryDx=0;entryDy=0;" parent="1" source="30" target="21" edge="1">
                    <mxGeometry relative="1" as="geometry">
                        <Array as="points">
                            <mxPoint x="-177.93" y="-1691"/>
                            <mxPoint x="-257.93" y="-1691"/>
                            <mxPoint x="-336.93" y="-1691"/>
                        </Array>
                    </mxGeometry>
                </mxCell>
                <mxCell id="30" value="with open(BOOKS&lt;span style=&quot;color: rgb(0, 0, 0);&quot;&gt;_FILE&lt;/span&gt;, &quot;a&quot;)" style="whiteSpace=wrap;html=1;" parent="1" vertex="1">
                    <mxGeometry x="-247.93" y="-1857" width="140" height="60" as="geometry"/>
                </mxCell>
            </root>
        </mxGraphModel>
    </diagram>
</mxfile>